<?xml version="1.0" encoding="utf-8"?>
<svg version="1.1" xmlns="http://www.w3.org/2000/svg" xmlns:xlink="http://www.w3.org/1999/xlink"
	x="0px" y="0px"
	viewBox="0 0 500 500" style="enable-background:new 0 0 500 500;" xml:space="preserve">
	<g>
		
		<linearGradient id="SVGID_00000021096862326219058420000002739044450857160372_" gradientUnits="userSpaceOnUse" x1="250" y1="249.0005" x2="250" y2="82.8916">
			<stop  offset="0.1624" style="stop-color:#401BDB"/>
			<stop  offset="1" style="stop-color:#FF5F6B"/>
		</linearGradient>
		<path style="fill:url(#SVGID_00000021096862326219058420000002739044450857160372_);" d="M339.816,158.099
			c0.056-1.112,0.086-2.232,0.086-3.359c0-35.664-28.911-64.575-64.574-64.575c-28.718,0-53.043,18.751-61.436,44.673
			c-5.678-5.592-13.467-9.045-22.066-9.045c-17.371,0-31.452,14.082-31.452,31.452c0,2.892,0.398,5.689,1.128,8.348
			c-1.373-0.175-2.77-0.275-4.19-0.275c-18.14,0-32.844,14.705-32.844,32.844c0,18.139,14.704,32.844,32.844,32.844
			c5.308,0,56.293-3.202,69.584-0.835c7.877,1.401,11.133,6.401,14.334,19.205c1.614,6.455,3.983,18.182,9.883,27.874
			c-0.581-10.504-0.366-21.99,1.632-36.011c1.738-12.299,4.353-23.37,7.228-33.044c-2.909-0.17-20.935,0.132-32.456-1.197
			c-6.5-0.75-5.583-7.678-4.811-13.163c1.644-11.67,6.81-39.003,11.31-51.003c7.494-19.983,29.17-23.347,52.453-20.547
			c4.548,0.547,19.328,2.658,21.215,11.547c0.932,4.399-2.302,8.719-7.756,16.802c-9.244,13.698-14.697,23.609-16.527,27.451
			c4.285,0.147,14.248,0.31,21.324,0.913c7.334,0.625,8.207,1.371,9.025,2.394c5.08,6.388-21.5,30.145-38.255,57.607
			c-6.536,10.706-13.602,20.128-18.88,40.394c7.537-12.852,25.633-39.56,37.36-44.909c3.966-1.81,8.905-2.143,14.474-2.087
			c10.576,0.104,21.643,0.889,31.727-0.439c7.312-0.963,13.624-2.708,17.337-5.966c10.776-6.336,18.016-18.044,18.016-31.449
			C375.531,174.656,359.607,158.499,339.816,158.099z"/>
	
		<linearGradient id="SVGID_00000008142023070355017450000007040144116660658100_" gradientUnits="userSpaceOnUse" x1="172.2952" y1="249" x2="172.2952" y2="82.8915">
			<stop  offset="0.1624" style="stop-color:#401BDB"/>
			<stop  offset="1" style="stop-color:#FF5F6B"/>
		</linearGradient>
		<path style="fill:url(#SVGID_00000008142023070355017450000007040144116660658100_);" d="M210.787,208.314
			c-11.669-4.774-58.848-11.875-63.694-12.919c-7.964-1.715-14.527-6.383-18.806-12.604c-2.434,4.587-3.818,9.816-3.818,15.371
			c0,18.139,14.704,32.844,32.844,32.844c4.629,0,43.998-2.435,62.809-1.487c-0.008-0.287-0.015-0.583-0.024-0.852
			C219.693,216.347,217.703,211.143,210.787,208.314z"/>
	
		<linearGradient id="SVGID_00000093145793537041761340000001745381880264963972_" gradientUnits="userSpaceOnUse" x1="331.5439" y1="249.0002" x2="331.5439" y2="82.8913">
		<stop  offset="0" style="stop-color:#FF8B2C"/>
		<stop  offset="0.0492" style="stop-color:#E47B44"/>
		<stop  offset="0.1513" style="stop-color:#B35E72"/>
		<stop  offset="0.2525" style="stop-color:#894698"/>
		<stop  offset="0.3507" style="stop-color:#6933B5"/>
		<stop  offset="0.4451" style="stop-color:#5326CA"/>
		<stop  offset="0.5341" style="stop-color:#451ED7"/>
		<stop  offset="0.612" style="stop-color:#401BDB"/>
		</linearGradient>
		<path style="fill:url(#SVGID_00000093145793537041761340000001745381880264963972_);" d="M339.816,158.099
			c0.056-1.112,0.086-2.232,0.086-3.359c0-31.481-22.532-57.687-52.346-63.403c29.627,9.076,47.877,39.478,41.233,70.328
			c-0.222,1.029-0.47,2.045-0.738,3.05c17.989,4.256,29.35,22.138,25.441,40.294c-2.636,12.239-11.547,21.505-22.631,25.171
			c-3.533,1.967-14.492,2.318-14.489,2.377c8.073,0.203,16.218,0.4,23.806-0.599c7.312-0.963,13.624-2.708,17.337-5.966
			c10.776-6.336,18.016-18.044,18.016-31.449C375.531,174.656,359.607,158.499,339.816,158.099z"/>
	<g>
		<g>
			
				<linearGradient id="SVGID_00000051382418752391130930000004141316892730410135_" gradientUnits="userSpaceOnUse" x1="265.0059" y1="282.4659" x2="265.0059" y2="84.5347">
				<stop  offset="0" style="stop-color:#FF8B2C"/>
				<stop  offset="0.0803" style="stop-color:#E47B44"/>
				<stop  offset="0.2473" style="stop-color:#B35E72"/>
				<stop  offset="0.4126" style="stop-color:#894698"/>
				<stop  offset="0.5731" style="stop-color:#6933B5"/>
				<stop  offset="0.7274" style="stop-color:#5326CA"/>
				<stop  offset="0.8728" style="stop-color:#451ED7"/>
				<stop  offset="1" style="stop-color:#401BDB"/>
			</linearGradient>
			<path style="fill:url(#SVGID_00000051382418752391130930000004141316892730410135_);" d="M235.678,202.073
				c-5.256-1.027-4.125-7.653-3.192-12.897c1.986-11.158,7.712-37.226,12.045-48.567c7.216-18.885,25.073-21.107,43.901-17.319
				c3.676,0.739,15.609,3.465,16.655,12.111c0.517,4.278-2.36,8.285-7.253,15.81c-8.295,12.753-13.29,22.037-14.994,25.649
				c0.328,0.032,0.71,0.068,1.114,0.105c2.237-4.442,7.513-13.792,15.976-26.332c5.454-8.083,8.688-12.403,7.756-16.802
				c-1.887-8.889-16.667-11-21.215-11.547c-23.283-2.8-44.959,0.563-52.453,20.547c-4.5,12-9.666,39.333-11.31,51.003
				c-0.772,5.485-1.689,12.413,4.811,13.163c11.52,1.329,29.547,1.026,32.456,1.197c-2.875,9.673-5.49,20.745-7.228,33.044
				c-1.422,9.986-1.94,18.684-1.913,26.662c1.138-35.761,12.912-56.186,15.331-63.9
				C263.803,203.699,244.997,203.893,235.678,202.073z"/>
		</g>
		
			<linearGradient id="SVGID_00000010285605343215012330000016977008389779178928_" gradientUnits="userSpaceOnUse" x1="283.6919" y1="282.4658" x2="283.6919" y2="84.5346">
			<stop  offset="0" style="stop-color:#21EADB"/>
			<stop  offset="0.0737" style="stop-color:#27BFDB"/>
			<stop  offset="0.1714" style="stop-color:#2F8EDB"/>
			<stop  offset="0.2682" style="stop-color:#3565DB"/>
			<stop  offset="0.3621" style="stop-color:#3A44DB"/>
			<stop  offset="0.4524" style="stop-color:#3D2EDB"/>
			<stop  offset="0.5375" style="stop-color:#3F20DB"/>
			<stop  offset="0.612" style="stop-color:#401BDB"/>
		</linearGradient>
		<path style="fill:url(#SVGID_00000010285605343215012330000016977008389779178928_);" d="M313.752,181.393
			c-0.818-1.023-1.692-1.769-9.025-2.394c-1.591-0.135-3.329-0.248-5.114-0.344c0.188,0.028,0.379,0.056,0.561,0.085
			c5.943,0.946,6.615,1.705,7.226,2.729c3.788,6.387-19.197,28.009-34.378,53.659c-7.23,12.212-18.354,34.039-20.024,61.872
			c5.294-33.217,14.314-44.592,22.5-58C292.252,211.538,318.832,187.781,313.752,181.393z"/>
	</g>
	
		<linearGradient id="SVGID_00000041274078230292112240000010047675780953200550_" gradientUnits="userSpaceOnUse" x1="188.8367" y1="87.5324" x2="235.3842" y2="284.2487">
		<stop  offset="0" style="stop-color:#21EADB"/>
		<stop  offset="0.0737" style="stop-color:#27BFDB"/>
		<stop  offset="0.1714" style="stop-color:#2F8EDB"/>
		<stop  offset="0.2682" style="stop-color:#3565DB"/>
		<stop  offset="0.3621" style="stop-color:#3A44DB"/>
		<stop  offset="0.4524" style="stop-color:#3D2EDB"/>
		<stop  offset="0.5375" style="stop-color:#3F20DB"/>
		<stop  offset="0.612" style="stop-color:#401BDB"/>
	</linearGradient>
	<path style="fill:url(#SVGID_00000041274078230292112240000010047675780953200550_);" d="M141.997,209.5
		c-2.184-18.007,7.952-27.686,25.96-29.87c1.41-0.171,2.809-0.24,4.193-0.232c-1.045-2.552-1.777-5.281-2.125-8.151
		c-2.091-17.243,10.192-32.918,27.436-35.01c8.537-1.035,16.685,1.456,22.995,6.323c5.21-26.744,27.101-48.288,55.61-51.746
		c1.647-0.2,3.285-0.315,4.916-0.389c-1.864-0.162-3.747-0.261-5.653-0.261c-28.718,0-53.043,18.751-61.436,44.673
		c-5.678-5.592-13.467-9.045-22.066-9.045c-17.371,0-31.452,14.082-31.452,31.452c0,2.892,0.398,5.689,1.128,8.348
		c-1.373-0.175-2.77-0.275-4.19-0.275c-18.14,0-32.844,14.705-32.844,32.844c0,18.139,14.704,32.844,32.844,32.844
		c1.211,0,4.808-0.167,9.789-0.396C154.337,229.121,143.613,222.827,141.997,209.5z"/>
</g>
</svg>